#N canvas 4 132 572 444 10;
#X obj 90 361 s red;
#X obj 230 361 s green;
#X obj 380 361 s blue;
#X msg 90 327 \$1 \, 0 \$2;
#X msg 230 327 \$1 \, 0 \$2;
#X msg 380 327 \$1 \, 0 \$2;
#X obj 172 19 inlet on;
#X obj 263 97 f;
#X obj 263 123 max 0;
#X obj 217 96 max 0;
#X obj 172 48 route on brightness time colour;
#X obj 326 156 unpack f f f;
#X obj 90 241 * 255;
#X obj 230 241 * 0;
#X obj 380 244 * 0;
#X obj 90 143 f 1;
#X text 116 142 brightness;
#X text 129 241 R;
#X text 256 241 G;
#X text 408 243 B;
#X obj 90 180 t f f f;
#X obj 90 293 pack f 1000;
#X obj 230 293 pack f 1000;
#X obj 380 293 pack f 1000;
#X obj 90 87 spigot 0;
#X obj 90 36 inlet bang;
#X connect 3 0 0 0;
#X connect 4 0 1 0;
#X connect 5 0 2 0;
#X connect 6 0 10 0;
#X connect 7 0 8 0;
#X connect 8 0 21 1;
#X connect 8 0 22 1;
#X connect 8 0 23 1;
#X connect 9 0 15 1;
#X connect 10 0 24 1;
#X connect 10 1 9 0;
#X connect 10 2 7 0;
#X connect 10 3 11 0;
#X connect 11 0 12 1;
#X connect 11 1 13 1;
#X connect 11 2 14 1;
#X connect 12 0 21 0;
#X connect 13 0 22 0;
#X connect 14 0 23 0;
#X connect 15 0 20 0;
#X connect 20 0 12 0;
#X connect 20 1 13 0;
#X connect 20 2 14 0;
#X connect 21 0 3 0;
#X connect 22 0 4 0;
#X connect 23 0 5 0;
#X connect 24 0 15 0;
#X connect 25 0 24 0;
