#N canvas 4 132 671 509 10;
#X obj 90 461 s red;
#X obj 240 461 s green;
#X obj 394 461 s blue;
#X obj 312 140 f;
#X obj 255 140 max 0;
#X obj 369 139 unpack f f f;
#X obj 90 301 c_lfo red 0.5 50 sine;
#X obj 240 301 c_lfo green 1 50 sine;
#X obj 394 301 c_lfo blue 1.5 50 sine;
#X obj 90 364 * 255;
#X obj 90 428 int;
#X obj 240 364 * 255;
#X obj 240 428 int;
#X obj 394 364 * 255;
#X obj 394 428 int;
#X msg 213 274 freq \$1;
#X msg 363 274 freq \$1;
#X msg 523 274 freq \$1;
#X obj 312 192 t f f f;
#X obj 363 251 * 2;
#X obj 523 250 * 3;
#X obj 90 394 * 1;
#X obj 240 394 * 1;
#X obj 394 394 * 1;
#X msg 132 162 on \$1;
#X obj 255 91 route brightness speed colour;
#X obj 90 56 inlet on;
#X obj 255 62 inlet;
#X obj 90 137 t f f;
#X obj 90 107 moses 1;
#X obj 312 166 max 0.001;
#X connect 3 0 30 0;
#X connect 4 0 21 1;
#X connect 4 0 22 1;
#X connect 4 0 23 1;
#X connect 5 0 9 1;
#X connect 5 1 11 1;
#X connect 5 2 13 1;
#X connect 6 0 9 0;
#X connect 7 0 11 0;
#X connect 8 0 13 0;
#X connect 9 0 21 0;
#X connect 10 0 0 0;
#X connect 11 0 22 0;
#X connect 12 0 1 0;
#X connect 13 0 23 0;
#X connect 14 0 2 0;
#X connect 15 0 6 1;
#X connect 16 0 7 1;
#X connect 17 0 8 1;
#X connect 18 0 15 0;
#X connect 18 1 19 0;
#X connect 18 2 20 0;
#X connect 19 0 16 0;
#X connect 20 0 17 0;
#X connect 21 0 10 0;
#X connect 22 0 12 0;
#X connect 23 0 14 0;
#X connect 24 0 6 1;
#X connect 24 0 7 1;
#X connect 24 0 8 1;
#X connect 25 0 4 0;
#X connect 25 1 3 0;
#X connect 25 2 5 0;
#X connect 26 0 29 0;
#X connect 27 0 25 0;
#X connect 28 0 9 0;
#X connect 28 0 11 0;
#X connect 28 0 13 0;
#X connect 28 1 24 0;
#X connect 29 0 28 0;
#X connect 29 1 24 0;
#X connect 30 0 18 0;
