#N canvas 367 36 895 696 10;
#X obj 236 397 r red;
#X obj 485 397 r blue;
#X obj 236 583 int;
#X obj 361 583 int;
#X obj 485 583 int;
#X msg 236 608 print 1c\$1w;
#X msg 361 608 print 2c\$1w;
#X msg 485 608 print 3c\$1w;
#X obj 361 397 r green;
#X obj 236 423 line;
#X obj 361 423 line;
#X obj 485 423 line;
#X obj 236 555 * 1;
#X obj 361 555 * 1;
#X obj 485 555 * 1;
#X obj 171 142 del 1000;
#X obj 171 119 loadbang;
#X msg 94 82 open 2;
#X msg 32 44 devices;
#X obj 32 625 flatspace/comport 2 9600;
#X text 86 44 Find out which port your Arduino is on;
#X text 142 82 Open the right port;
#X text 234 355 This is where the colour information for each lamp
gets sent to the Arduino;
#X obj 565 538 f;
#X obj 565 490 vsl 15 40 0 1 0 0 empty empty empty 0 -9 0 10 -262130
-1 -1 3900 1;
#X text 585 500 Final brightness control;
#X text 229 -1 Interface with an Arduino connected to a 4-channel DMX
lamp;
#X obj 245 466 vsl 15 40 0 255 0 0 empty empty empty 0 -9 0 10 -261234
-1 -1 3900 1;
#X obj 371 466 vsl 15 40 0 255 0 0 empty empty empty 0 -9 0 10 -204786
-1 -1 3900 1;
#X obj 495 466 vsl 15 40 0 255 0 0 empty empty empty 0 -9 0 10 -204800
-1 -1 3900 1;
#X msg 171 169 255;
#X msg 171 323 print 4c\$1w;
#X obj 195 199 r strobe;
#X obj 195 222 sel 0;
#X msg 195 245 255;
#X obj 237 268 + 190;
#X obj 237 244 * 58;
#X obj 237 292 int;
#X text 200 169 Set the dimmer to full-on by default;
#X text 243 221 Strobe range control;
#X connect 0 0 9 0;
#X connect 1 0 11 0;
#X connect 2 0 5 0;
#X connect 3 0 6 0;
#X connect 4 0 7 0;
#X connect 5 0 19 0;
#X connect 6 0 19 0;
#X connect 7 0 19 0;
#X connect 8 0 10 0;
#X connect 9 0 12 0;
#X connect 9 0 27 0;
#X connect 10 0 13 0;
#X connect 10 0 28 0;
#X connect 11 0 14 0;
#X connect 11 0 29 0;
#X connect 12 0 2 0;
#X connect 13 0 3 0;
#X connect 14 0 4 0;
#X connect 15 0 30 0;
#X connect 16 0 15 0;
#X connect 17 0 19 0;
#X connect 18 0 19 0;
#X connect 23 0 14 1;
#X connect 23 0 13 1;
#X connect 23 0 12 1;
#X connect 24 0 23 0;
#X connect 30 0 31 0;
#X connect 31 0 19 0;
#X connect 32 0 33 0;
#X connect 33 0 34 0;
#X connect 33 1 36 0;
#X connect 34 0 31 0;
#X connect 35 0 37 0;
#X connect 36 0 35 0;
#X connect 37 0 31 0;
