#N canvas 113 385 572 444 10;
#X obj 207 391 s red;
#X obj 287 391 s green;
#X obj 367 391 s blue;
#X obj 150 19 inlet on;
#X obj 326 186 unpack f f f;
#X obj 58 19 inlet bang;
#X obj 150 78 route speed brightness colour;
#X obj 207 271 f;
#X obj 287 271 f;
#X obj 367 274 f;
#X obj 207 311 * 1;
#X obj 287 311 * 1;
#X obj 367 314 * 1;
#X obj 207 130 t b b b f;
#X obj 108 169 s strobe;
#X obj 108 143 f;
#X obj 58 80 sel 1;
#X obj 108 114 max 0.1;
#X msg 140 140 0;
#X obj 58 49 route on;
#X connect 3 0 6 0;
#X connect 4 0 7 0;
#X connect 4 1 8 0;
#X connect 4 2 9 0;
#X connect 5 0 19 0;
#X connect 6 0 17 0;
#X connect 6 1 13 0;
#X connect 6 2 4 0;
#X connect 7 0 10 0;
#X connect 8 0 11 0;
#X connect 9 0 12 0;
#X connect 10 0 0 0;
#X connect 11 0 1 0;
#X connect 12 0 2 0;
#X connect 13 0 7 0;
#X connect 13 1 8 0;
#X connect 13 2 9 0;
#X connect 13 3 10 1;
#X connect 13 3 11 1;
#X connect 13 3 12 1;
#X connect 15 0 14 0;
#X connect 16 0 15 0;
#X connect 16 1 14 0;
#X connect 17 0 15 0;
#X connect 18 0 14 0;
#X connect 19 0 16 0;
